<svg xmlns="http://www.w3.org/2000/svg" width="512" height="512" viewBox="0 0 512 512">
  <!-- Maskable / Apple variant: opaque background + the bloq_icon.svg block
       scaled into the ~80% safe zone so a circular/squircle mask can't clip the
       notch. Geometry copied verbatim from bloq_icon.svg. -->
  <rect width="512" height="512" fill="#eef2f9"/>
  <g transform="translate(256 256) scale(0.72) translate(-256 -256)">
    <g transform="matrix(8.5269,0,0,8.5269,0,34.4935)">
      <path d="M0,-0.045C-0,-2.24 1.806,-4.045 4,-4.045L56.045,-4.045C58.24,-4.045 60.045,-2.24 60.045,-0.045L60.045,44C60.045,46.194 58.24,48 56.045,48L48,48C46,48 45,49 44,50L40,54C39,55 38,56 36,56L24,56C22,56 21,55 20,54L16,50C15,49 14,48 12,48L4,48C1.806,48 0,46.194 0,44L0,-0.045Z" style="fill:rgb(91,128,165);fill-rule:nonzero;"/>
      <path d="M0,-0.045C-0,-2.24 1.806,-4.045 4,-4.045L56.045,-4.045C58.24,-4.045 60.045,-2.24 60.045,-0.045L60.045,44C60.045,46.194 58.24,48 56.045,48L48,48C46,48 45,49 44,50L40,54C39,55 38,56 36,56L24,56C22,56 21,55 20,54L16,50C15,49 14,48 12,48L4,48C1.806,48 0,46.194 0,44L0,-0.045ZM1,-0.045C1,-1.691 2.354,-3.045 4,-3.045L56.045,-3.045C57.691,-3.045 59.045,-1.691 59.045,-0.045L59.045,44C59.045,45.646 57.691,47 56.045,47L48,47C45.658,47 44.464,48.122 43.293,49.293C43.293,49.293 39.293,53.293 39.293,53.293C38.464,54.122 37.659,55 36,55L24,55C22.341,55 21.536,54.122 20.707,53.293C20.707,53.293 16.707,49.293 16.707,49.293C15.536,48.122 14.342,47 12,47L4,47C2.354,47 1,45.646 1,44L1,-0.045Z" style="fill:rgb(68,96,124);"/>
    </g>
  </g>
</svg>
